<?xml version="1.0" encoding="utf-8"?>
<!-- Generator: Adobe Illustrator 24.1.0, SVG Export Plug-In . SVG Version: 6.00 Build 0)  -->
<svg version="1.1" id="Layer_1" xmlns="http://www.w3.org/2000/svg" xmlns:xlink="http://www.w3.org/1999/xlink" x="0px" y="0px"
	 viewBox="0 0 6367.5 728.9" style="enable-background:new 0 0 6367.5 728.9;" xml:space="preserve">
<style type="text/css">
	.st0{fill-rule:evenodd;clip-rule:evenodd;fill:#84B337;}
	.st1{fill-rule:evenodd;clip-rule:evenodd;fill:#009ADC;}
	.st2{fill-rule:evenodd;clip-rule:evenodd;fill:#F1B11F;}
	.st3{fill-rule:evenodd;clip-rule:evenodd;fill:#008ABF;}
	.st4{fill-rule:evenodd;clip-rule:evenodd;fill:#EC8F2F;}
	.st5{fill-rule:evenodd;clip-rule:evenodd;fill:#719F3B;}
	.st6{fill:#333333;}
	.st7{font-family:'DFHuaZong-W5-WIN-BF';}
	.st8{font-size:600px;}
</style>
<g>
	<path class="st0" d="M388.6,391c63.3-63.7,59.8-208.4,46.8-325.6c-85.6,281-91.7,287.2-372.2,374.4
		C180.6,452,325.3,454.7,388.6,391L388.6,391L388.6,391z"/>
	<path class="st1" d="M457.4,413.4c-89.8,0-190,104.5-264,196.4c259.6-137.4,268.3-137.4,527.9,0
		C647.4,517.9,547.3,413.4,457.4,413.4L457.4,413.4L457.4,413.4z"/>
	<path class="st2" d="M526.2,391c-63.3-63.7-59.8-208.4-46.8-325.6c85.6,281,91.7,287.2,372.2,374.4
		C734.3,452,589.6,454.7,526.2,391L526.2,391L526.2,391z"/>
	<path class="st3" d="M536.7,436.6L333.4,539.2c-38.1,16.9-83,40.5-140,70.6c74-91.8,174.1-196.4,264-196.4
		C483.3,413.4,510,422.1,536.7,436.6L536.7,436.6L536.7,436.6z"/>
	<path class="st1" d="M414.2,585.3c0-23.9,19.4-43.2,43.2-43.2c23.9,0,43.2,19.4,43.2,43.2c0,23.9-19.4,43.2-43.2,43.2
		C433.6,628.6,414.2,609.2,414.2,585.3L414.2,585.3L414.2,585.3z"/>
	<path class="st4" d="M598.6,430.9L528,214.4c-14.9-39-29.8-87.4-48.6-149c-13,117.2-16.5,261.9,46.8,325.6
		C544.5,409.3,569.4,422.2,598.6,430.9L598.6,430.9L598.6,430.9z"/>
	<path class="st2" d="M617.7,239.1c-16.9,16.8-17,44.2-0.2,61.1c16.8,16.9,44.2,17,61.1,0.2c16.9-16.8,17-44.2,0.2-61.1
		C662,222.4,634.6,222.3,617.7,239.1L617.7,239.1L617.7,239.1z"/>
	<path class="st5" d="M316.3,430.9l70.6-216.5c14.9-39,29.8-87.4,48.6-149c13,117.2,16.5,261.9-46.8,325.6
		C370.4,409.3,345.4,422.2,316.3,430.9L316.3,430.9L316.3,430.9z"/>
	<path class="st0" d="M297.2,239.1c16.9,16.8,17,44.2,0.2,61.1c-16.8,16.9-44.2,17-61.1,0.2c-16.9-16.8-17-44.2-0.2-61.1
		C252.9,222.4,280.3,222.3,297.2,239.1L297.2,239.1L297.2,239.1z"/>
	<text transform="matrix(1 0 0 1 894.7271 536.6498)" class="st6 st7 st8">桃園區課後陪伴樂園 </text>
</g>
</svg>
